<?xml version="1.0" standalone="no"?>
<!DOCTYPE svg PUBLIC "-//W3C//DTD SVG 20010904//EN"
 "http://www.w3.org/TR/2001/REC-SVG-20010904/DTD/svg10.dtd">
<svg version="1.0" xmlns="http://www.w3.org/2000/svg"
 width="300.000000pt" height="300.000000pt" viewBox="0 0 300.000000 300.000000"
 preserveAspectRatio="xMidYMid meet">
<metadata>
Created by potrace 1.10, written by Peter Selinger 2001-2011
</metadata>
<g transform="translate(0.000000,300.000000) scale(0.100000,-0.100000)"
fill="#000000" stroke="none">
<path d="M1450 2868 c-88 -25 -146 -110 -138 -199 10 -99 88 -169 188 -169
222 0 259 310 45 369 -46 13 -48 13 -95 -1z m99 -18 c67 -19 121 -90 121 -160
0 -113 -108 -202 -210 -171 -104 31 -162 151 -116 239 42 80 123 116 205 92z"/>
<path d="M1413 2819 c-36 -23 -73 -91 -73 -136 0 -45 40 -113 80 -134 19 -11
55 -19 80 -19 25 0 61 8 80 19 40 21 80 89 80 134 0 46 -37 114 -74 137 -45
27 -129 27 -173 -1z m139 -36 c27 -24 23 -69 -8 -90 -32 -20 -59 -8 -59 28 0
17 6 25 23 27 25 4 30 -16 10 -37 -11 -11 -10 -13 1 -9 28 8 37 36 19 55 -14
14 -22 15 -43 5 -14 -6 -25 -18 -25 -27 0 -9 -9 -15 -25 -15 -32 0 -33 23 0
55 29 29 79 33 107 8z m58 -82 c19 -37 12 -88 -16 -110 -34 -27 -58 -27 -85 0
-24 24 -22 57 7 75 28 19 60 -3 50 -34 -9 -28 -30 -28 -44 1 -11 22 -11 22
-11 1 -1 -37 51 -47 69 -13 9 16 8 26 -3 43 -10 15 -12 27 -5 39 12 22 25 21
38 -2z m-135 -15 c25 -38 -8 -82 -42 -55 -19 16 -12 32 18 40 21 5 22 7 6 14
-21 9 -47 -10 -47 -35 0 -24 26 -43 50 -37 13 3 24 -1 30 -13 15 -28 13 -30
-25 -30 -67 0 -110 76 -68 122 23 25 59 23 78 -6z"/>
<path d="M1290 2531 c-12 -30 -7 -51 12 -51 6 0 8 8 5 19 -3 14 0 17 15 13 20
-5 20 -4 3 22 -9 14 -18 26 -20 26 -1 0 -8 -13 -15 -29z"/>
<path d="M1639 2517 c-34 -40 -63 -107 -39 -92 5 3 10 11 10 16 0 12 16 33 53
67 25 25 36 52 20 52 -5 -1 -24 -20 -44 -43z"/>
<path d="M1697 2514 c-4 -4 -7 -14 -7 -21 0 -8 -16 -30 -37 -49 -20 -19 -33
-37 -30 -41 4 -3 23 10 42 30 20 20 41 36 47 34 6 -1 12 3 14 8 6 14 -20 48
-29 39z"/>
<path d="M1242 2460 c-7 -12 -10 -25 -7 -30 10 -17 35 -11 35 8 1 15 3 15 18
-3 9 -12 33 -30 51 -40 52 -29 71 -47 71 -66 0 -9 7 -22 15 -29 16 -13 20 -48
7 -66 -4 -5 -29 -14 -56 -20 -66 -12 -87 -40 -87 -119 -1 -91 -12 -128 -65
-210 -43 -65 -53 -74 -79 -75 -33 0 -55 -15 -55 -38 0 -8 -8 -21 -17 -28 -25
-18 -5 -50 29 -46 22 2 25 -1 21 -22 -7 -35 26 -63 83 -72 33 -5 84 0 167 15
l119 22 131 -22 c86 -15 145 -20 170 -15 49 9 80 40 74 73 -4 21 -1 24 15 20
11 -3 26 -3 34 0 19 7 18 42 -1 49 -8 4 -15 14 -15 23 0 26 -20 41 -54 41 -27
0 -36 8 -76 72 -60 96 -61 99 -69 201 -9 103 -23 123 -90 133 -25 4 -49 12
-53 18 -12 18 -9 53 6 65 24 20 27 68 6 104 -41 69 -109 69 -149 1 l-21 -34
-51 36 c-28 21 -56 45 -62 56 -15 24 -29 23 -45 -2z m305 -59 c28 -42 29 -68
2 -97 -17 -18 -19 -27 -12 -55 9 -34 14 -37 96 -54 38 -8 57 -55 57 -143 0
-65 3 -72 58 -165 52 -89 59 -97 82 -93 14 3 32 1 40 -5 13 -7 12 -9 -2 -9
-10 0 -18 -5 -18 -11 0 -7 9 -9 21 -6 15 4 19 2 15 -9 -3 -8 1 -14 10 -14 9 0
14 -6 11 -12 -4 -14 -31 -15 -61 -3 -16 7 -17 6 -7 -13 46 -86 -39 -112 -245
-73 -100 19 -102 19 -200 0 -203 -39 -289 -13 -243 73 10 19 9 20 -7 13 -30
-12 -57 -11 -61 3 -3 6 2 12 11 12 9 0 13 6 10 14 -4 11 0 13 15 9 12 -3 21
-1 21 6 0 6 -8 11 -17 11 -15 0 -16 2 -3 9 8 6 26 8 40 5 23 -4 30 4 83 93 54
93 57 100 57 165 0 88 19 135 57 143 82 17 87 20 97 53 8 28 6 36 -14 57 -27
29 -22 76 12 112 31 33 67 27 95 -16z"/>
<path d="M1361 1995 c-16 -57 -61 -131 -120 -197 l-52 -57 72 24 c89 31 101
41 124 109 17 49 17 58 3 107 l-15 54 -12 -40z m0 -138 c-20 -45 -29 -53 -90
-72 -21 -6 -18 0 22 51 25 33 54 77 64 99 l18 40 3 -36 c2 -20 -6 -56 -17 -82z"/>
<path d="M1600 1976 c-14 -58 -7 -93 29 -152 15 -25 35 -37 96 -57 l76 -26
-47 52 c-67 74 -100 126 -119 185 -10 29 -18 52 -20 52 -1 0 -8 -24 -15 -54z
m35 -43 c9 -21 37 -64 62 -97 49 -62 48 -62 -25 -35 -28 11 -61 81 -62 132 0
20 2 37 5 37 3 0 12 -17 20 -37z"/>
<path d="M1714 2432 c-17 -15 -43 -37 -59 -49 -21 -16 -24 -23 -13 -23 9 0 18
3 20 8 6 13 65 42 87 42 24 0 26 9 9 33 -12 15 -16 14 -44 -11z"/>
<path d="M1196 2385 c-21 -31 -20 -35 4 -35 11 0 20 7 20 16 0 11 6 14 20 9
25 -8 26 3 3 21 -25 18 -28 17 -47 -11z"/>
<path d="M1767 2394 c-3 -3 -3 -12 0 -20 3 -9 0 -12 -8 -9 -8 2 -30 1 -49 -4
-32 -7 -28 -8 33 -12 69 -4 78 1 53 34 -14 18 -19 20 -29 11z"/>
<path d="M1142 2300 c-29 -38 -28 -52 1 -41 12 5 21 14 20 19 -1 6 4 16 12 22
19 15 19 30 2 30 -7 0 -23 -13 -35 -30z"/>
<path d="M1808 2320 c-1 -5 -29 -11 -61 -12 -31 -1 -57 -6 -57 -10 0 -4 27 -6
60 -4 39 2 64 -2 70 -10 6 -6 20 -14 31 -17 l20 -5 -20 31 c-22 34 -37 44 -43
27z"/>
<path d="M1215 2301 c21 -10 142 -15 133 -6 -3 4 -39 8 -79 10 -50 3 -67 2
-54 -4z"/>
<path d="M1680 2250 c0 -5 10 -10 23 -10 12 0 28 -4 36 -9 8 -5 21 -7 29 -4 9
4 0 11 -25 19 -46 16 -63 17 -63 4z"/>
<path d="M1846 2235 c-19 -15 -19 -15 1 -15 26 0 49 -25 33 -35 -13 -8 45 -48
61 -43 9 3 -55 101 -69 105 -4 1 -16 -4 -26 -12z"/>
<path d="M1059 2169 c-22 -33 -39 -62 -37 -64 1 -1 28 11 58 27 30 17 45 28
33 25 -31 -7 -36 6 -13 33 15 17 36 25 82 30 l63 7 -72 2 -72 1 -42 -61z"/>
<path d="M1735 2160 c12 -19 124 -99 129 -91 3 4 -13 18 -34 32 -22 13 -40 27
-40 32 0 4 -7 7 -15 7 -8 0 -15 4 -15 9 0 5 -7 12 -16 15 -8 3 -12 2 -9 -4z"/>
<path d="M1214 2145 c-10 -8 -28 -15 -39 -16 -16 -1 -17 -2 -3 -6 16 -4 78 22
78 32 0 9 -16 5 -36 -10z"/>
<path d="M1207 2095 c-15 -14 -22 -25 -15 -25 14 1 58 34 58 44 0 12 -16 5
-43 -19z"/>
<path d="M1900 2115 c0 -3 11 -10 24 -15 14 -5 42 -33 64 -62 21 -29 48 -60
58 -68 18 -14 18 -14 2 5 -9 11 -28 43 -43 70 -15 28 -30 53 -34 56 -8 8 -71
20 -71 14z"/>
<path d="M1750 2091 c0 -12 89 -66 96 -58 3 3 -4 8 -15 12 -12 3 -21 10 -21
14 0 3 -13 15 -30 24 -16 10 -30 14 -30 8z"/>
<path d="M1032 2076 c-17 -7 -37 -17 -44 -24 -17 -17 -1 -27 18 -11 9 8 33 22
53 31 41 19 23 22 -27 4z"/>
<path d="M1235 2055 c-11 -8 -30 -22 -42 -31 -13 -9 -31 -22 -40 -29 -10 -8
-15 -16 -12 -19 3 -3 21 7 40 23 19 16 45 38 59 50 29 23 25 28 -5 6z"/>
<path d="M1092 2003 c-33 -27 -59 -50 -57 -52 6 -5 95 61 95 71 0 4 6 8 14 8
8 0 18 5 21 10 14 23 -17 7 -73 -37z"/>
<path d="M1751 2040 c-1 -8 9 -26 22 -40 12 -14 41 -51 65 -82 24 -31 51 -63
60 -70 22 -18 -22 45 -84 117 -28 34 -54 67 -57 75 -5 13 -6 13 -6 0z"/>
<path d="M1890 2038 c14 -7 27 -15 30 -18 18 -19 92 -71 96 -67 7 7 -99 84
-126 91 l-25 6 25 -12z"/>
<path d="M1080 1935 c-23 -19 -37 -35 -31 -35 12 0 91 69 79 70 -3 0 -25 -16
-48 -35z"/>
<path d="M2040 1943 c0 -11 42 -53 53 -53 4 0 1 11 -5 25 -6 14 -13 23 -16 20
-3 -3 -11 0 -19 6 -7 6 -13 7 -13 2z"/>
<path d="M735 1801 c-104 -48 -143 -156 -94 -259 51 -105 198 -136 286 -59 69
60 89 145 54 222 -45 98 -152 140 -246 96z m152 -22 c112 -54 124 -217 21
-290 -49 -35 -142 -39 -188 -7 -19 13 -45 39 -58 58 -32 46 -28 139 7 188 48
69 138 90 218 51z"/>
<path d="M740 1768 c-64 -33 -85 -67 -85 -138 0 -63 16 -95 69 -134 39 -29
133 -29 173 0 33 24 73 97 73 134 0 49 -42 113 -90 138 -24 12 -56 22 -70 22
-14 0 -46 -10 -70 -22z m30 -26 c0 -4 -16 -23 -35 -42 -23 -23 -35 -43 -35
-61 0 -36 -16 -46 -23 -14 -6 32 27 99 56 113 27 13 37 14 37 4z m60 -20 c0
-16 13 -49 30 -73 37 -55 39 -97 5 -129 l-25 -24 6 31 c5 26 1 35 -20 54 -14
12 -26 29 -26 36 0 7 -4 13 -10 13 -9 0 -27 -52 -33 -100 -3 -23 -5 -22 -21
13 -17 39 -15 90 6 131 8 14 12 16 18 6 6 -9 15 0 29 28 25 49 41 54 41 14z
m74 2 c38 -37 52 -113 26 -138 -7 -7 -10 -7 -9 -1 3 13 -15 52 -40 90 -36 52
-17 90 23 49z m-86 -200 c2 -24 -1 -30 -18 -30 -20 0 -26 19 -14 51 10 24 29
12 32 -21z"/>
<path d="M2115 1801 c-131 -60 -152 -221 -42 -318 88 -77 235 -46 286 59 49
103 10 211 -94 259 -51 24 -99 24 -150 0z m155 -21 c57 -29 84 -73 88 -145 3
-50 0 -66 -20 -95 -38 -56 -82 -80 -148 -80 -47 0 -64 5 -97 29 -170 123 -10
387 177 291z"/>
<path d="M2120 1768 c-48 -25 -90 -89 -90 -138 0 -37 40 -110 73 -134 40 -29
134 -29 173 0 53 39 69 71 69 134 0 43 -5 66 -21 87 -24 33 -97 73 -134 73
-14 0 -46 -10 -70 -22z m121 -10 c35 -10 38 -14 32 -37 -3 -14 -8 -30 -10 -34
-5 -9 -43 36 -43 52 0 6 -14 11 -31 11 -17 0 -28 4 -24 10 8 13 29 13 76 -2z
m-50 -58 c17 0 29 -5 29 -13 0 -8 -10 -13 -22 -13 -32 1 -38 -48 -9 -63 40
-22 90 24 91 82 1 21 1 22 15 3 34 -45 8 -133 -47 -162 -66 -34 -160 9 -174
80 -6 33 11 90 24 82 4 -2 14 -1 22 5 8 5 21 7 28 4 8 -3 27 -5 43 -5z"/>
<path d="M620 1365 c0 -13 104 -15 880 -15 776 0 880 2 880 15 0 13 -104 15
-880 15 -776 0 -880 -2 -880 -15z"/>
<path d="M1848 1263 c-36 -39 -52 -82 -87 -235 -16 -73 -34 -146 -40 -161 -14
-36 -14 -37 3 -37 8 0 30 28 48 62 37 70 83 112 98 89 10 -17 -11 -80 -40
-122 l-21 -29 49 0 c40 0 53 5 73 27 21 23 22 25 4 19 -64 -23 -96 -16 -59 15
19 15 44 63 44 83 0 8 -7 22 -16 31 -21 20 -59 13 -91 -17 -13 -12 -23 -19
-23 -16 0 19 53 235 62 252 21 40 30 47 44 35 20 -16 17 -31 -11 -74 -15 -20
-23 -40 -20 -44 10 -9 64 55 71 85 15 60 -43 84 -88 37z"/>
<path d="M927 1256 c-41 -15 -73 -40 -88 -68 -13 -23 -1 -45 72 -133 78 -94
94 -138 63 -169 -13 -13 -45 -16 -196 -16 -163 0 -179 2 -167 16 35 42 169 84
270 84 l64 1 -24 20 c-29 24 -74 20 -191 -17 -141 -44 -188 -99 -112 -131 45
-20 254 -23 318 -5 126 36 126 112 0 267 -31 37 -56 73 -56 81 0 28 51 54 105
54 59 0 77 -14 68 -49 -9 -34 18 -22 30 13 7 21 6 32 -6 43 -21 21 -104 26
-150 9z"/>
<path d="M2040 1128 c-11 -18 -25 -52 -31 -75 -7 -26 -18 -43 -30 -46 -23 -6
-25 -27 -3 -27 10 0 14 -6 11 -14 -3 -8 -11 -34 -17 -58 -6 -24 -13 -51 -16
-60 -5 -16 2 -18 49 -18 43 0 58 5 75 23 24 25 30 46 10 30 -15 -12 -101 -25
-96 -15 2 4 12 31 23 60 19 50 21 52 57 52 21 0 38 5 38 10 0 6 1 13 3 17 1 5
-15 6 -36 5 -37 -4 -38 -3 -31 25 4 15 13 46 20 68 17 48 17 55 4 55 -6 0 -19
-15 -30 -32z"/>
<path d="M2195 1108 c-10 -27 -10 -61 0 -64 12 -4 56 56 49 68 -8 13 -44 9
-49 -4z"/>
<path d="M1295 1011 c4 -17 0 -44 -9 -66 -21 -50 -20 -81 5 -106 22 -22 50
-19 82 9 17 15 19 15 28 -1 15 -27 64 -22 88 10 26 32 21 41 -11 19 -12 -9
-31 -16 -40 -16 -17 0 -17 2 -3 30 19 38 20 120 1 120 -9 0 -16 -17 -21 -47
-10 -67 -77 -129 -100 -93 -4 6 -1 33 6 59 10 40 10 55 -1 80 -16 39 -34 41
-25 2z"/>
<path d="M1082 1013 c-7 -11 -6 -23 1 -34 8 -13 8 -25 -1 -43 -16 -36 3 -33
25 4 16 27 48 48 59 38 2 -3 -5 -22 -16 -43 -25 -49 -25 -77 -2 -98 25 -23 35
-21 71 9 40 33 40 49 1 29 -56 -29 -67 10 -25 89 14 26 25 49 25 50 0 2 -20 1
-44 -1 -26 -3 -46 -1 -50 6 -10 16 -34 13 -44 -6z"/>
<path d="M1569 975 c-23 -31 -39 -59 -35 -63 4 -4 17 4 27 17 l20 25 26 -27
c26 -26 26 -27 8 -47 -11 -12 -31 -20 -50 -20 -20 0 -35 -6 -39 -15 -9 -26
124 -21 158 6 35 28 33 43 -4 24 -42 -22 -51 -19 -35 11 15 29 11 49 -14 77
-14 17 -14 20 2 32 23 16 22 35 -3 35 -12 0 -35 -21 -61 -55z"/>
<path d="M2184 1012 c-16 -2 -25 -16 -37 -62 -20 -71 -21 -92 -5 -108 18 -18
63 -14 89 7 31 25 22 33 -25 20 -21 -6 -39 -9 -41 -7 -2 2 7 35 21 73 13 39
23 72 21 75 -1 3 -11 4 -23 2z"/>
<path d="M2580 929 c-70 -38 -108 -74 -131 -124 -23 -49 -24 -78 -4 -136 11
-31 13 -57 8 -82 l-8 -37 -37 25 c-21 14 -45 40 -54 58 -14 30 -13 29 21 -10
42 -49 55 -53 55 -19 0 18 -16 37 -61 71 l-60 46 6 -48 c9 -59 28 -91 63 -105
15 -5 41 -16 57 -23 26 -11 34 -10 50 2 52 40 219 94 201 65 -3 -5 -23 -12
-44 -16 -22 -3 -56 -13 -78 -22 -36 -15 -37 -17 -19 -30 32 -23 77 -16 135 21
30 19 66 35 80 35 21 1 19 4 -20 24 -95 49 -153 43 -213 -24 -20 -22 -40 -40
-46 -40 -16 0 -13 76 4 143 17 67 56 147 81 167 11 10 6 -7 -15 -48 -31 -62
-67 -179 -58 -189 10 -9 79 30 95 55 10 15 18 59 22 121 5 67 13 106 25 124
22 34 13 34 -55 -4z m-10 -173 c0 -19 -9 -44 -19 -57 l-20 -24 9 35 c22 88 30
101 30 46z"/>
<path d="M1750 676 c-11 -24 -27 -73 -34 -108 -8 -40 -18 -63 -27 -64 -8 -1
-22 -2 -33 -3 -23 -1 -86 -67 -86 -90 0 -9 -8 -18 -17 -19 -89 -11 -123 -13
-123 -4 0 15 22 30 49 34 34 4 40 28 7 28 -25 0 -43 16 -32 28 4 3 20 1 36 -5
20 -8 31 -8 39 0 20 20 11 27 -33 27 -50 0 -71 -18 -62 -53 4 -16 0 -26 -14
-35 -24 -15 -26 -47 -4 -56 33 -13 92 -6 117 14 l26 21 11 -21 c13 -24 47 -26
79 -4 22 16 24 16 33 0 12 -21 41 -20 61 2 23 25 21 35 -4 22 -28 -16 -33 -8
-20 32 5 18 17 75 26 127 9 52 25 111 36 133 16 30 17 38 5 38 -8 0 -24 -20
-36 -44z m-58 -216 c-3 -34 -35 -74 -61 -78 -29 -5 -36 19 -17 57 28 53 84 68
78 21z"/>
<path d="M2097 709 c-28 -16 -54 -79 -86 -205 -16 -66 -32 -127 -36 -136 -6
-16 -1 -18 38 -18 30 0 53 7 68 20 l24 20 -47 -7 c-53 -6 -55 -3 -33 51 9 20
25 78 36 129 21 91 41 137 59 137 17 0 11 -41 -11 -71 -27 -39 -8 -37 25 2 28
33 33 58 14 77 -14 14 -27 15 -51 1z"/>
<path d="M622 687 c-46 -17 -87 -59 -112 -116 l-22 -48 -92 -6 c-112 -6 -190
-30 -228 -68 -37 -36 -33 -59 12 -82 27 -14 51 -17 106 -14 83 5 139 29 169
74 11 17 25 37 30 45 8 12 19 13 53 6 l44 -10 -7 -36 c-4 -20 -13 -55 -20 -77
-8 -21 -12 -41 -10 -44 12 -11 37 28 57 90 21 65 24 69 52 69 17 0 38 5 46 10
11 7 3 10 -29 10 -42 0 -43 1 -37 28 20 82 37 130 56 149 11 12 20 25 20 28 0
9 -53 4 -88 -8z m14 -58 c-13 -24 -29 -63 -36 -87 -11 -42 -11 -43 -48 -36
-20 4 -38 8 -40 9 -8 7 40 83 70 111 32 31 70 55 76 50 1 -2 -9 -23 -22 -47z
m-166 -147 c0 -15 -59 -72 -85 -82 -33 -13 -195 -13 -215 0 -23 14 16 48 81
71 55 19 219 27 219 11z"/>
<path d="M723 502 c3 -13 -2 -43 -10 -66 -26 -69 3 -105 60 -73 l29 17 -7 -27
c-3 -16 -16 -53 -28 -83 -19 -46 -26 -55 -47 -55 -22 0 -25 4 -22 30 l2 30
-20 -25 c-29 -36 -25 -57 10 -65 43 -10 77 16 105 78 23 53 55 179 55 216 0
38 -28 23 -35 -18 -7 -45 -37 -81 -67 -81 -16 0 -19 4 -14 23 18 59 18 93 0
107 -16 14 -17 13 -11 -8z"/>
<path d="M890 487 c0 -20 -5 -48 -12 -62 -25 -55 29 -99 74 -59 16 16 18 16
24 0 8 -22 47 -20 67 2 24 26 21 33 -8 20 -32 -14 -38 -8 -25 26 15 39 13 86
-4 86 -8 0 -16 -16 -20 -40 -3 -22 -15 -49 -27 -61 -22 -22 -56 -21 -50 2 13
52 12 96 -3 108 -14 12 -16 9 -16 -22z"/>
<path d="M2343 500 c3 -11 -2 -42 -11 -69 -13 -41 -13 -53 -2 -65 16 -21 49
-20 72 1 23 21 23 11 -3 -68 -25 -75 -35 -89 -60 -89 -24 0 -33 18 -19 35 10
12 10 15 0 15 -16 0 -39 -30 -40 -52 0 -10 11 -19 30 -23 62 -14 105 43 141
182 23 93 25 133 4 133 -8 0 -15 -9 -15 -20 0 -35 -27 -88 -49 -95 -32 -10
-39 1 -28 43 11 42 3 92 -14 92 -6 0 -9 -9 -6 -20z"/>
<path d="M1073 494 c-4 -10 -2 -19 5 -22 7 -2 8 -11 2 -28 -13 -33 7 -32 22 1
6 14 20 25 31 25 18 0 18 -1 3 -25 -21 -32 -21 -84 1 -92 19 -7 64 15 71 35 3
11 0 12 -16 3 -11 -6 -25 -11 -31 -11 -18 0 -12 51 10 86 l21 34 -34 0 c-18 0
-43 3 -55 6 -16 5 -25 1 -30 -12z"/>
<path d="M1240 495 c-6 -8 -14 -31 -17 -52 -6 -43 25 -93 57 -93 24 0 76 61
85 99 5 22 12 31 27 31 11 0 18 5 16 11 -5 15 -101 16 -105 2 -2 -6 5 -13 17
-16 28 -7 26 -48 -4 -76 -49 -46 -86 2 -52 68 9 16 16 32 16 36 0 11 -28 4
-40 -10z"/>
<path d="M1825 478 c-37 -29 -59 -82 -45 -108 13 -24 47 -26 79 -4 22 16 24
16 33 0 12 -22 41 -20 63 4 18 20 18 20 -13 14 l-30 -6 16 44 c8 24 13 52 9
61 -10 25 -77 22 -112 -5z m81 -2 c13 -33 -40 -96 -80 -96 -38 0 -6 82 38 100
30 12 36 12 42 -4z"/>
<path d="M2149 461 c-24 -24 -39 -48 -39 -63 0 -46 40 -62 84 -33 21 14 24 14
36 0 17 -21 43 -19 65 5 18 20 18 20 -15 13 -30 -6 -33 -4 -26 13 34 84 28
104 -31 104 -28 0 -44 -9 -74 -39z m95 21 c2 -4 -4 -27 -14 -50 -19 -41 -55
-63 -80 -47 -23 14 15 79 55 96 26 10 33 11 39 1z"/>
<path d="M2549 483 c-30 -19 -59 -62 -59 -90 0 -42 48 -57 83 -26 18 17 19 17
32 0 16 -22 48 -22 68 1 24 26 21 33 -8 20 -34 -15 -37 -8 -18 40 13 34 13 44
3 57 -16 20 -68 19 -101 -2z m71 -19 c0 -28 -49 -84 -74 -84 -42 0 -21 75 28
96 43 18 46 18 46 -12z"/>
<path d="M220 120 c0 -7 433 -10 1280 -10 847 0 1280 3 1280 10 0 7 -433 10
-1280 10 -847 0 -1280 -3 -1280 -10z"/>
</g>
</svg>
